<svg version="1.1" xmlns="http://www.w3.org/2000/svg" viewBox="0 0 853.6256469296477 1181.4987811751862" width="853.6256469296477" height="1181.4987811751862" class="excalidraw-svg">
  <!-- svg-source:excalidraw -->
  
  <defs>
    <style class="style-fonts">
      @font-face {
        font-family: "Virgil";
        src: url("https://excalidraw.com/Virgil.woff2");
      }
      @font-face {
        font-family: "Cascadia";
        src: url("https://excalidraw.com/Cascadia.woff2");
      }
      @font-face {
        font-family: "Assistant";
        src: url("https://excalidraw.com/Assistant-Regular.woff2");
      }
    </style>
    
  </defs>
  <g stroke-linecap="round"><g transform="translate(446.49466988982294 11.888536311313601) rotate(0 -76.29519366147133 105.72492914607017)"><path d="M-0.9 -1.89 C-23.32 2.33, -110.62 -9.86, -136.29 25.89 C-161.97 61.65, -151.84 181.37, -154.96 212.64 M3.81 3.26 C-18.75 6.51, -112.53 -12.95, -138.06 21.14 C-163.6 55.22, -146.46 176.51, -149.41 207.76" stroke="#1e1e1e" stroke-width="4" fill="none"></path></g></g><mask></mask><g stroke-linecap="round"><g transform="translate(295.90385115688514 224.3381788984575) rotate(0 19.432568304572214 8.216571095692188)"><path d="M0.86 0.46 C3.41 1.06, 8.44 -1.31, 14.37 1.7 C20.3 4.71, 32.58 15.66, 36.43 18.51 M-2.11 -1.75 C1.37 -1.83, 12.15 -5.31, 19.49 -2.67 C26.83 -0.02, 38.97 11.33, 41.95 14.11" stroke="#1e1e1e" stroke-width="4" fill="none"></path></g></g><mask></mask><g stroke-linecap="round"><g transform="translate(333.11937086744547 236.22893210267057) rotate(0 -48.74355601764955 381.9409692474593)"><path d="M-1.61 1.06 C3.3 9.44, 3.62 51.7, 27.1 50.98 C50.59 50.26, 109.97 -13.33, 139.32 -3.26 C168.66 6.81, 198.3 71.97, 203.17 111.4 C208.05 150.84, 209.45 207.26, 168.58 233.35 C127.72 259.44, 26.05 286.57, -42.02 267.94 C-110.08 249.31, -238.84 184.36, -239.83 121.56 C-240.82 58.77, -78.63 -60.1, -47.95 -108.85 C-17.26 -157.6, -16.36 -199.09, -55.71 -170.93 C-95.06 -142.78, -243.45 -0.74, -284.05 60.08 C-324.64 120.9, -335.93 140.49, -299.28 193.98 C-262.62 247.47, -142.14 257.46, -64.12 381.01 C13.89 504.55, 129.52 842.76, 168.82 935.27 M2.72 -0.83 C7.61 6.73, 3.36 48.42, 25.77 47.19 C48.19 45.95, 107.57 -18.06, 137.21 -8.25 C166.85 1.55, 197.6 65.77, 203.61 106.02 C209.61 146.27, 214.83 205.33, 173.23 233.24 C131.63 261.15, 22.46 292.54, -45.97 273.47 C-114.4 254.39, -236.7 182.54, -237.36 118.8 C-238.02 55.07, -80.93 -61.41, -49.93 -108.93 C-18.93 -156.45, -11.38 -194.37, -51.35 -166.31 C-91.32 -138.26, -248.71 -0.94, -289.76 59.41 C-330.8 119.76, -334.62 142.38, -297.62 195.77 C-260.62 249.16, -145.58 256.66, -67.76 379.75 C10.07 502.85, 129.43 841.44, 169.31 934.33" stroke="#1e1e1e" stroke-width="4" fill="none"></path></g></g><mask></mask><g stroke-linecap="round"><g transform="translate(646.5748165874738 370.02952342960384) rotate(0 97.5 117.50000000000011)"><path d="M-1.91 -0.23 C-2.03 12.02, -17.48 53.34, -0.76 74.2 C15.95 95.06, 65.46 97.93, 98.39 124.94 C131.33 151.95, 180.09 217.75, 196.83 236.25 M2.25 -2.83 C1.92 9.78, -17.64 55.81, -2.06 77.4 C13.52 98.98, 62.53 101.08, 95.71 126.66 C128.9 152.24, 180.32 212.44, 197.05 230.89" stroke="#1e1e1e" stroke-width="4" fill="none"></path></g></g><mask></mask></svg>