<svg version="1.1" xmlns="http://www.w3.org/2000/svg" viewBox="0 0 365.90012669804764 510.8401640933382" width="365.90012669804764" height="510.8401640933382" class="excalidraw-svg">
  <!-- svg-source:excalidraw -->
  
  <defs>
    <style class="style-fonts">
      @font-face {
        font-family: "Virgil";
        src: url("https://excalidraw.com/Virgil.woff2");
      }
      @font-face {
        font-family: "Cascadia";
        src: url("https://excalidraw.com/Cascadia.woff2");
      }
      @font-face {
        font-family: "Assistant";
        src: url("https://excalidraw.com/Assistant-Regular.woff2");
      }
    </style>
    
  </defs>
  <g stroke-linecap="round"><g transform="translate(325.7208127112099 9.675192226469562) rotate(0 -56.068589306454214 83.1451227959626)"><path d="M1.64 1.81 C-14.94 5.64, -81.37 -7.44, -100.37 20.3 C-119.36 48.05, -110.81 143.56, -112.35 168.3 M-0.92 0.32 C-17.81 4.91, -83.91 -3.16, -102.8 24.1 C-121.7 51.35, -112.02 140.54, -114.27 163.86" stroke="#1e1e1e" stroke-width="4" fill="none"></path></g></g><mask></mask><g stroke-linecap="round"><g transform="translate(215.15615230472577 176.75169692160694) rotate(0 15.2823302032416 6.461747652431313)"><path d="M-0.89 -1.12 C1.56 -1.19, 8.25 -2.3, 13.62 0.21 C18.99 2.72, 28.67 11.93, 31.34 13.96 M0.84 0.91 C3.27 0.97, 7.89 -0.23, 12.91 1.65 C17.93 3.52, 28.24 10.24, 30.98 12.16" stroke="#1e1e1e" stroke-width="4" fill="none"></path></g></g><mask></mask><g stroke-linecap="round"><g transform="translate(246.40466387260494 188.94393391084327) rotate(0 -44.0316039659906 156.07623284462647)"><path d="M-0.25 2.16 C2.78 7.17, 3.63 27.43, 19.28 28.3 C34.94 29.16, 78.67 4.54, 93.69 7.35 C108.72 10.16, 109.89 29.43, 109.42 45.16 C108.94 60.9, 104.63 85.46, 90.87 101.76 C77.11 118.06, 39.74 120.61, 26.87 142.96 C14 165.32, 19.08 208.29, 13.66 235.9 C8.24 263.51, 6.35 304.79, -5.64 308.65 C-17.63 312.5, -49 286.03, -58.3 259 C-67.59 231.98, -58.42 168.47, -61.39 146.52 C-64.36 124.56, -69.64 122.25, -76.12 127.25 C-82.6 132.25, -93.57 179.89, -100.26 176.53 C-106.95 173.16, -112.7 124.34, -116.28 107.05 C-119.85 89.76, -117.08 74.63, -121.71 72.78 C-126.34 70.93, -141.2 85.44, -144.08 95.95 C-146.96 106.47, -139.07 138.57, -138.98 135.86 C-138.89 133.16, -137.97 88.68, -143.55 79.75 C-149.12 70.81, -167.87 72.24, -172.43 82.25 C-177 92.27, -169.76 137.01, -170.94 139.83 C-172.11 142.64, -174.8 101.83, -179.48 99.13 C-184.15 96.43, -198.59 104.31, -199 123.65 C-199.41 142.98, -192.61 183.75, -181.94 215.13 C-171.28 246.5, -143.22 295.58, -135.03 311.9 M-3.83 0.87 C-1.16 6.31, 1.87 29.16, 17.69 30.64 C33.52 32.13, 75.85 8.1, 91.1 9.75 C106.35 11.41, 109.79 25.22, 109.21 40.6 C108.63 55.97, 100.8 85.22, 87.64 102 C74.48 118.79, 43.55 118.27, 30.27 141.29 C17 164.3, 13.08 212.08, 7.98 240.09 C2.87 268.1, 10.14 306.57, -0.35 309.35 C-10.83 312.13, -45.21 284.06, -54.94 256.76 C-64.68 229.47, -55.15 166.95, -58.76 145.59 C-62.36 124.24, -70.35 123.42, -76.56 128.65 C-82.77 133.89, -89.51 180.8, -96.03 177.02 C-102.55 173.25, -112.37 123.64, -115.69 106.02 C-119 88.39, -111.23 73.04, -115.93 71.29 C-120.62 69.54, -139.12 84.2, -143.83 95.51 C-148.55 106.82, -143.87 141.6, -144.22 139.16 C-144.56 136.71, -142.04 90.35, -145.9 80.84 C-149.76 71.33, -162.64 71.97, -167.38 82.1 C-172.13 92.23, -172.32 138.13, -174.38 141.64 C-176.44 145.15, -175.18 105.32, -179.72 103.17 C-184.26 101.02, -201.24 109.42, -201.6 128.74 C-201.96 148.07, -192.9 188.96, -181.87 219.12 C-170.83 249.28, -142.91 294.33, -135.38 309.71" stroke="#1e1e1e" stroke-width="4" fill="none"></path></g></g><mask></mask><g stroke-linecap="round"><g stroke-opacity="0.5" fill-opacity="0.5" transform="translate(52.14130027772444 174.52191956279535) rotate(0 -1.9914151409793703 -28.57219554640892)" fill-rule="evenodd"><path d="M1.23 -2.42 C-5.56 -7.71, -39.55 -24.63, -43.9 -34.2 C-48.24 -43.78, -32.22 -58.71, -24.84 -59.86 C-17.47 -61, -5.59 -41.87, 0.36 -41.07 C6.3 -40.27, 5.02 -55.34, 10.81 -55.03 C16.61 -54.73, 37.6 -47.81, 35.12 -39.22 C32.65 -30.63, 2.39 -10.43, -4.05 -3.5" stroke="none" stroke-width="0" fill="#e03131" fill-rule="evenodd"></path><path d="M1.9 1.98 C-4.29 -3.74, -35.83 -25.55, -39.9 -35.07 C-43.98 -44.59, -28.88 -54.05, -22.56 -55.13 C-16.25 -56.22, -8.05 -41.81, -2.03 -41.6 C3.99 -41.38, 7.34 -54.32, 13.55 -53.82 C19.76 -53.33, 37.69 -47.53, 35.23 -38.62 C32.77 -29.72, 4.82 -6.66, -1.2 -0.42 M-0.51 0.58 C-6.71 -5.98, -37.49 -29.79, -41.46 -39.82 C-45.44 -49.84, -30.91 -59.54, -24.37 -59.57 C-17.82 -59.61, -7.95 -41.25, -2.19 -40.05 C3.58 -38.84, 3.62 -52.13, 10.23 -52.36 C16.85 -52.6, 39.27 -49.56, 37.51 -41.47 C35.75 -33.38, 6.54 -10.3, -0.34 -3.82" stroke="#f40101" stroke-width="4" fill="none"></path></g></g><mask></mask></svg>