<svg version="1.1" xmlns="http://www.w3.org/2000/svg" viewBox="0 0 1364.7906878197991 361.15993200836976" width="1364.7906878197991" height="361.15993200836976" class="excalidraw-svg">
  <!-- svg-source:excalidraw -->
  
  <defs>
    <style class="style-fonts">
      @font-face {
        font-family: "Virgil";
        src: url("https://excalidraw.com/Virgil.woff2");
      }
      @font-face {
        font-family: "Cascadia";
        src: url("https://excalidraw.com/Cascadia.woff2");
      }
      @font-face {
        font-family: "Assistant";
        src: url("https://excalidraw.com/Assistant-Regular.woff2");
      }
    </style>
    
  </defs>
  <g stroke-linecap="round"><g transform="translate(122.19221114954325 178.12204207048669) rotate(0 542.5000000000005 85.83333333333331)"><path d="M1.11 -0.77 C-17.41 8.64, -99.08 35.57, -109.64 55.07 C-120.2 74.57, -96.79 101.02, -62.24 116.23 C-27.69 131.44, 23.85 146.25, 97.67 146.32 C171.49 146.4, 311.98 122.95, 380.67 116.67 C449.36 110.39, 448.07 103.6, 509.81 108.64 C571.54 113.68, 665.46 136.28, 751.07 146.91 C836.67 157.54, 949.02 176.72, 1023.43 172.42 C1097.84 168.12, 1168.98 129.33, 1197.55 121.1" stroke="#1e1e1e" stroke-width="4.5" fill="none" stroke-dasharray="8 12"></path></g></g><mask></mask><g stroke-linecap="round"><g transform="translate(123.85887781621022 123.12204207048669) rotate(0 0.8333333333325754 26.666666666666686)"><path d="M2.11 -0.84 C-1.13 1.22, -21.61 3.27, -21.97 12.27 C-22.32 21.27, -7.13 52.67, -0.02 53.17 C7.1 53.67, 20.46 24.47, 20.74 15.27 C21.02 6.06, 5.41 0.46, 1.65 -2.08 M-0.19 -3.77 C-3.6 -2.6, -24.1 -2.4, -24.37 7.59 C-24.64 17.58, -9.21 55.74, -1.83 56.19 C5.55 56.64, 19.77 20.03, 19.92 10.28 C20.07 0.54, 2.31 -0.17, -0.93 -2.28" stroke="#1e1e1e" stroke-width="4" fill="none"></path></g></g><mask></mask><g stroke-linecap="round"><g transform="translate(1327.3392176876177 241.90928079580223) rotate(0 0.8333333333325754 26.666666666666686)"><path d="M1.57 -2.66 C-2.36 -0.61, -22.88 1.87, -23.35 10.81 C-23.83 19.74, -9.46 50.95, -1.3 50.96 C6.86 50.96, 25.6 19.76, 25.59 10.85 C25.59 1.95, 3.36 -0.41, -1.34 -2.47 M-1.03 2.07 C-4.06 4.66, -17.4 5.52, -17.87 13.97 C-18.33 22.42, -11.36 53.09, -3.81 52.78 C3.74 52.47, 26.25 21.39, 27.41 12.11 C28.56 2.83, 7.79 -1.51, 3.11 -2.89" stroke="#1e1e1e" stroke-width="4" fill="none"></path></g></g><mask></mask><g stroke-linecap="round"><g transform="translate(696.1238350811664 217.74353169197624) rotate(0 -1.666666666666515 26.111111111111143)"><path d="M1.84 -1.65 C2.56 -4.98, -1.05 -19.33, 2.12 -21.16 C5.29 -22.99, 18.37 -16.95, 20.87 -12.62 C23.38 -8.29, 19.66 -0.52, 17.14 4.81 C14.61 10.14, 8.09 12.94, 5.72 19.34 C3.35 25.75, 1.53 35.5, 2.91 43.25 C4.28 51.01, 12.95 60.88, 13.98 65.86 C15.02 70.85, 12.77 76.03, 9.1 73.18 C5.42 70.32, -4.13 48.9, -8.07 48.73 C-12 48.57, -11.91 68.81, -14.52 72.2 C-17.12 75.58, -24.33 76, -23.71 69.03 C-23.09 62.06, -17.21 32.76, -10.8 30.37 C-4.4 27.97, 14.66 56.97, 14.73 54.65 C14.8 52.34, -7.87 25.3, -10.36 16.48 C-12.85 7.66, -2 4.18, -0.2 1.73 M-0.61 3.63 C1.16 -0.36, 3.9 -22.76, 7.26 -24.99 C10.62 -27.22, 17.86 -15.16, 19.54 -9.72 C21.23 -4.29, 19 3.82, 17.37 7.62 C15.74 11.42, 11.76 6.32, 9.77 13.08 C7.77 19.84, 4.49 38.55, 5.4 48.19 C6.32 57.82, 15.12 65.64, 15.25 70.89 C15.38 76.15, 9.32 83.88, 6.19 79.73 C3.06 75.57, -0.38 47.42, -3.53 45.99 C-6.69 44.55, -9.47 67.08, -12.74 71.12 C-16.01 75.15, -23.16 77.35, -23.16 70.22 C-23.16 63.1, -19.1 31.26, -12.77 28.36 C-6.44 25.46, 13.49 54.99, 14.82 52.82 C16.15 50.64, -2.39 23.89, -4.78 15.32 C-7.17 6.74, -0.86 4.39, 0.46 1.35" stroke="#1e1e1e" stroke-width="4" fill="none"></path></g></g><mask></mask><g stroke-linecap="round" transform="translate(114.19401051976365 136.57394104870147) rotate(0 8.888888888888687 8.888888888888687)"><path d="M13.31 -0.14 C14.89 0.62, 16.03 3.8, 16.75 5.69 C17.47 7.57, 18.18 9.4, 17.63 11.18 C17.08 12.95, 15.06 15.08, 13.45 16.32 C11.85 17.56, 9.82 18.87, 7.98 18.61 C6.14 18.35, 3.58 16.09, 2.41 14.76 C1.25 13.43, 1.11 12.55, 1 10.65 C0.88 8.76, 0.78 5.22, 1.73 3.4 C2.67 1.58, 4.65 -0.08, 6.67 -0.27 C8.69 -0.45, 12.39 1.62, 13.86 2.28 C15.33 2.94, 15.62 3.82, 15.5 3.7 M9.41 -1.19 C11.22 -1.55, 12.66 0.32, 13.93 1.79 C15.21 3.26, 16.35 5.96, 17.06 7.63 C17.77 9.3, 18.74 10.51, 18.19 11.82 C17.64 13.12, 15.88 14.52, 13.77 15.46 C11.66 16.4, 7.75 17.74, 5.53 17.45 C3.31 17.16, 1.4 15.08, 0.45 13.73 C-0.5 12.37, -0.44 10.96, -0.17 9.32 C0.11 7.68, 0.76 5.56, 2.09 3.9 C3.41 2.23, 6.59 -0.26, 7.78 -0.65 C8.97 -1.04, 9.18 1.46, 9.23 1.57" stroke="#1e1e1e" stroke-width="4" fill="none"></path></g><g stroke-linecap="round" transform="translate(1321.971788297541 252.1294966042573) rotate(0 8.888888888888687 8.888888888888687)"><path d="M5.78 0.31 C7.23 -0.15, 9.94 -0.31, 11.78 0.61 C13.61 1.53, 15.87 3.95, 16.77 5.84 C17.66 7.72, 17.65 10.31, 17.16 11.95 C16.68 13.58, 15.22 14.53, 13.86 15.65 C12.49 16.77, 10.83 18.83, 8.96 18.66 C7.09 18.49, 4.06 16, 2.64 14.65 C1.21 13.3, 0.59 12.34, 0.42 10.57 C0.24 8.79, 0.02 5.66, 1.57 3.97 C3.12 2.28, 8.17 0.82, 9.72 0.41 C11.27 0, 10.83 1.48, 10.87 1.51 M7.44 -0.97 C9.25 -1.27, 12.12 0.98, 13.56 2.3 C15 3.62, 15.77 5.39, 16.09 6.97 C16.4 8.55, 15.96 9.94, 15.46 11.79 C14.96 13.63, 14.33 17.21, 13.1 18.06 C11.87 18.91, 10.16 17.65, 8.08 16.88 C6 16.11, 2.04 15.08, 0.62 13.45 C-0.81 11.82, -0.62 9.02, -0.45 7.08 C-0.28 5.15, 0.05 3, 1.63 1.84 C3.21 0.68, 8.07 0.52, 9.04 0.13 C10.01 -0.25, 7.61 -0.51, 7.45 -0.48" stroke="#1e1e1e" stroke-width="4" fill="none"></path></g><g stroke-linecap="round"><g transform="translate(401.2565847390224 117.81735928014692) rotate(350.3298116675639 -12.775635927931035 10.114051607636604)"><path d="M0.05 -0.16 C-6.99 6.94, -12.08 12, -27.25 20.23 M0.13 0.75 C-9.11 6.97, -16.19 12.41, -26.09 20.02" stroke="#1e1e1e" stroke-width="4" fill="none"></path></g></g><mask></mask><g stroke-linecap="round"><g transform="translate(379.2564454560634 138.13879280569734) rotate(350.3298116675639 10.114051607636611 10.64635677525149)"><path d="M-0.28 1.82 C6.37 7.07, 8.57 10.82, 20.61 20.74 M-0.9 0.53 C6.19 5.66, 11.47 12.24, 19.77 21.18" stroke="#1e1e1e" stroke-width="4" fill="none"></path></g></g><mask></mask><g stroke-linecap="round"><g transform="translate(444.6389886021252 103.09453671148529) rotate(350.3298116675639 10.646356775251661 11.17868143693974)"><path d="M1.24 1.64 C4.48 6.33, 12.78 12.31, 21.21 22.62 M0.17 -0.49 C7.25 8.06, 15.32 16.55, 21.67 22.74" stroke="#1e1e1e" stroke-width="4" fill="none"></path></g></g><mask></mask><g stroke-linecap="round"><g transform="translate(444.2578168627442 147.88202254590826) rotate(350.3298116675639 12.775635927931035 -10.114032113563212)"><path d="M-1.7 0 C10.25 -8.67, 19.78 -15.77, 27.05 -22.03 M-0.54 -0.21 C8.52 -7.12, 18.37 -13.76, 24.76 -19.74" stroke="#1e1e1e" stroke-width="4" fill="none"></path></g></g><mask></mask><g stroke-linecap="round"><g transform="translate(440.5500286440065 104.15397952377631) rotate(350.3298116675639 -15.277357771013158 26.461159864802262)"><path d="M0.76 -1.1 C-12.74 20.75, -21.25 36.85, -28.45 53.62 M-0.91 -0.23 C-7.48 13.92, -17.49 27.43, -31.62 52.24" stroke="#1e1e1e" stroke-width="4" fill="none"></path></g></g><mask></mask><g stroke-linecap="round"><g transform="translate(1064.4635792086328 178.50815229910248) rotate(19.774902059116013 26.406425158840648 12.508306654187578)"><path d="M-0.07 2.07 C-0.57 5.15, -10.11 15.05, -1.58 18.76 C6.96 22.47, 41.74 27.03, 51.15 24.34 C60.56 21.65, 54.58 5.67, 54.88 2.63 M-3.55 0.73 C-4.64 4.26, -13.09 18, -4.3 22.39 C4.5 26.79, 39.12 30.14, 49.2 27.08 C59.29 24.02, 56.21 7.25, 56.21 4.03" stroke="#1e1e1e" stroke-width="4" fill="none"></path></g></g><mask></mask><g stroke-linecap="round" transform="translate(1049.7542396444533 154.26734879967617) rotate(19.774902059116013 49.338320691517765 17.72010109343242)"><path d="M62.5 4.5 C67.53 7.19, 71.09 10.78, 86.18 13.5 M62.5 4.5 C69.53 8.95, 73.69 7.49, 86.18 13.5 M86.18 13.5 C98.95 17.04, 99.84 20.11, 86.18 22.5 M86.18 13.5 C102.07 14.99, 94.58 17.66, 86.18 22.5 M86.18 22.5 C80.57 26, 67.8 26.46, 62.5 30.94 M86.18 22.5 C79.72 24.32, 73.45 27.18, 62.5 30.94 M62.5 30.94 C51.37 32.52, 52.96 37.43, 37.5 30.94 M62.5 30.94 C49.89 39.42, 47.54 30.85, 37.5 30.94 M37.5 30.94 C33.24 27.43, 29.41 23.09, 12.5 22.5 M37.5 30.94 C33.01 30.42, 25.81 28.64, 12.5 22.5 M12.5 22.5 C-1.37 21.52, -2.42 21.31, 12.5 13.5 M12.5 22.5 C-1.02 15.01, -1.82 21.87, 12.5 13.5 M12.5 13.5 C20.93 7.51, 29.71 7.01, 37.5 4.5 M12.5 13.5 C19.59 10.04, 28.63 6.67, 37.5 4.5 M37.5 4.5 C50 -0.76, 48.06 -0.1, 62.5 4.5 M37.5 4.5 C49.55 3.59, 49.97 1.04, 62.5 4.5" stroke="#1e1e1e" stroke-width="4" fill="none"></path></g><g stroke-linecap="round"><g transform="translate(1099.3679513628995 167.90297046204702) rotate(19.774902059116013 2.084717775697982 -2.4321707383142552)"><path d="M-0.64 -0.39 C-0.53 -1.21, 0.35 -4.63, 1.04 -5.47 C1.73 -6.32, 2.91 -5.49, 3.51 -5.45 M0.41 1.04 C0.41 0.35, -0.14 -3.83, 0.62 -4.82 C1.38 -5.82, 4.25 -4.95, 4.98 -4.93" stroke="#1e1e1e" stroke-width="4" fill="none"></path></g></g><mask></mask><g stroke-linecap="round"><g transform="translate(730.8378920811692 77.04425360726137) rotate(0.8862485064757201 11.199414745564354 -10.315270873507908)"><path d="M0.17 1.65 C6.75 -3.43, 10.55 -11.92, 22.36 -21.62 M-0.31 0.38 C9.35 -9.11, 17.63 -15.37, 21.82 -21.15" stroke="#1e1e1e" stroke-width="4" fill="none"></path></g></g><mask></mask><g stroke-linecap="round"><g transform="translate(752.8079534062044 58.07627467437539) rotate(0.8862485064757201 14.441361954054628 -0.5894508341084403)"><path d="M1.06 1.45 C5.11 -2.42, 11.54 -1.7, 30.83 -2.64 M0.3 -0.98 C7.48 0.52, 14.99 -1.27, 29.81 -1.73" stroke="#1e1e1e" stroke-width="4" fill="none"></path></g></g><mask></mask><g stroke-linecap="round"><g transform="translate(781.924266493118 57.911079647085906) rotate(0.8862485064757201 15.03081278816262 -14.441372747089792)"><path d="M-0.68 -1.95 C11.31 -12.26, 24.79 -23.78, 29.45 -29.49 M-0.31 0.95 C9.49 -9.99, 21.17 -19.79, 29.51 -29.05" stroke="#1e1e1e" stroke-width="4" fill="none"></path></g></g><mask></mask><g stroke-linecap="round"><g transform="translate(723.3323958028523 85.19294098399635) rotate(0.8862485064757201 0 -36.95240551758201)"><path d="M-0.08 -1.99 C4.39 -30.43, -0.71 -56.25, 1.52 -72.69 M-1.17 -1.04 C2.32 -16.01, -0.64 -30.14, 1.8 -75.23" stroke="#1e1e1e" stroke-width="4" fill="none"></path></g><g transform="translate(723.3323958028523 85.19294098399635) rotate(0.8862485064757201 0 -36.95240551758201)"><path d="M9.55 -52.46 C8.72 -61.85, 3.26 -69.85, 2.56 -74.62 M9.01 -51.99 C9.03 -56.74, 5.98 -61.15, 2.7 -75.89" stroke="#1e1e1e" stroke-width="4" fill="none"></path></g><g transform="translate(723.3323958028523 85.19294098399635) rotate(0.8862485064757201 0 -36.95240551758201)"><path d="M-7.54 -53.01 C-2.01 -62.03, -1.1 -69.82, 2.56 -74.62 M-8.08 -52.54 C-4.62 -57.34, -4.22 -61.64, 2.7 -75.89" stroke="#1e1e1e" stroke-width="4" fill="none"></path></g></g><mask></mask><g stroke-linecap="round"><g transform="translate(724.229650907705 84.64869579326626) rotate(0.8862485064757201 53.81417641481539 0)"><path d="M3.89 -2.92 C20.59 -0.15, 45.14 2.28, 103.69 -1.24 M1.86 -1.11 C41.42 0.78, 86.83 -0.2, 107.21 -1.98" stroke="#1e1e1e" stroke-width="4" fill="none"></path></g><g transform="translate(724.229650907705 84.64869579326626) rotate(0.8862485064757201 53.81417641481539 0)"><path d="M86.16 6.38 C88.27 5.36, 94.3 4.58, 105.24 -2.6 M85.15 7.29 C92.81 3.91, 103.34 -0.46, 107 -2.96" stroke="#1e1e1e" stroke-width="4" fill="none"></path></g><g transform="translate(724.229650907705 84.64869579326626) rotate(0.8862485064757201 53.81417641481539 0)"><path d="M85.23 -10.69 C87.52 -8.25, 93.74 -5.57, 105.24 -2.6 M84.21 -9.78 C92.14 -6.41, 103.05 -4.03, 107 -2.96" stroke="#1e1e1e" stroke-width="4" fill="none"></path></g></g><mask></mask></svg>